<svg width="329" height="536" viewBox="0 0 329 536" fill="none" xmlns="http://www.w3.org/2000/svg">
<path d="M207.675 535C203.872 525.301 202.728 514.764 204.359 504.475C205.991 494.186 210.34 484.52 216.957 476.474C226.363 465.336 239.564 458.254 251.17 449.439C259.889 442.825 268.14 434.381 272.045 424.425C272.221 423.969 272.232 423.465 272.077 423.001C271.922 422.538 271.61 422.142 271.195 421.883C270.78 421.625 270.288 421.518 269.803 421.583C269.318 421.648 268.871 421.88 268.538 422.239C260.728 430.737 249.424 436.224 239.028 441.821C225.593 449.04 211.525 459.147 209.16 474.219C209.042 474.593 209.02 474.991 209.097 475.376C209.174 475.76 209.347 476.119 209.6 476.419C210.975 477.602 212.46 474.948 212.268 473.119C211.154 462.613 204.54 453.496 201.927 443.265C199.177 432.607 200.937 421.414 201.501 410.426C201.899 402.698 201.501 394.502 198.874 387.365C198.783 387.183 198.768 386.972 198.832 386.779C198.897 386.585 199.036 386.425 199.218 386.334C199.4 386.243 199.611 386.228 199.805 386.292C199.998 386.357 200.158 386.496 200.249 386.678C212.341 404.114 217.714 425.338 215.376 446.427C215.316 446.939 215.062 447.409 214.667 447.741C214.272 448.072 213.766 448.24 213.251 448.21C212.736 448.18 212.252 447.955 211.898 447.58C211.544 447.205 211.347 446.709 211.347 446.194C211.347 433.817 217.246 421.194 225.552 411.595C236.553 398.958 251.184 390.281 265.073 380.957C276.886 373.05 288.602 364.181 296.564 352.561C296.755 352.262 297.046 352.041 297.385 351.935C297.723 351.829 298.088 351.845 298.416 351.981C298.744 352.117 299.013 352.364 299.177 352.679C299.342 352.993 299.39 353.356 299.314 353.702C296.727 364.544 291.804 374.691 284.889 383.433C276.638 394.296 266.324 403.427 256.011 412.434C247.568 419.846 237.529 427.794 225.29 421.359C220.462 418.662 216.677 414.426 214.537 409.326C206.286 390.776 210.192 370.382 213.492 350.897C215.72 337.682 217.823 323.793 215.5 310.839C215.483 310.542 215.563 310.248 215.728 310C215.893 309.753 216.134 309.565 216.414 309.466C216.695 309.367 217 309.361 217.283 309.45C217.567 309.539 217.815 309.718 217.988 309.959C224.766 322.062 230.119 334.909 233.94 348.243C237.667 362.09 238.616 377.038 235.068 390.872C234.979 391.278 234.74 391.636 234.399 391.873C234.058 392.111 233.64 392.211 233.228 392.154C232.816 392.096 232.442 391.886 232.178 391.564C231.915 391.242 231.783 390.833 231.809 390.418C232.881 367.632 236.209 344.489 249.314 326.117C259.408 311.981 274.286 302.162 287.694 291.106C298.324 282.333 308.555 271.854 313.822 259.478C314.011 259.01 314.355 258.622 314.796 258.376C315.237 258.131 315.749 258.043 316.246 258.128C316.744 258.213 317.197 258.466 317.531 258.844C317.866 259.222 318.061 259.703 318.085 260.207C318.992 278.661 314.22 297.335 306.107 314.016C296.399 334.024 282.125 351.474 266.751 367.536C253.068 381.7 238.285 395.314 228.866 412.613C220.615 427.822 217.053 445.039 210.989 461.251C204.925 477.464 195.546 493.663 180.709 500.621C174.259 502.162 167.7 503.702 161.085 503.372C154.471 503.042 147.65 500.511 143.594 495.258C140.39 491.133 139.221 485.798 138.547 480.599C136.319 463.809 138.189 446.304 132.689 430.283C131.181 425.358 128.517 420.865 124.919 417.178C119.501 412.022 111.773 409.89 104.292 409.835C96.8117 409.78 89.4685 411.595 82.1115 413.08C77.0487 413.482 71.9576 412.834 67.1567 411.178C62.3557 409.522 57.9482 406.892 54.21 403.454C54.0092 403.268 53.88 403.018 53.8452 402.746C53.8103 402.474 53.8719 402.199 54.0193 401.968C54.1666 401.737 54.3903 401.566 54.6514 401.483C54.9124 401.4 55.1942 401.412 55.4476 401.516C62.3594 403.904 69.6146 405.149 76.9272 405.201C94.264 405.481 111.602 404.742 128.852 402.987C143.745 401.351 158.913 398.586 172.1 391.408C173.599 390.597 175.304 389.139 174.727 387.544C174.149 385.949 171.605 385.99 169.831 386.485C139.482 394.887 108.033 399.865 76.5422 399.274C69.9691 399.15 63.2859 398.765 57.084 396.593C50.8822 394.42 45.0929 390.267 42.3289 384.299C39.8399 378.922 40.0186 372.596 41.6688 366.903C43.9515 359.01 49.2733 351.777 56.7953 348.435C64.3173 345.094 74.0257 346.524 79.4162 352.74C81.5378 355.314 82.8027 358.487 83.0344 361.815C83.2661 365.143 82.4531 368.46 80.7089 371.304C80.5082 371.6 80.4051 371.952 80.4139 372.31C80.4227 372.668 80.543 373.014 80.758 373.3C80.973 373.586 81.272 373.798 81.6133 373.906C81.9545 374.014 82.321 374.013 82.6615 373.903C84.5947 373.185 86.3461 372.05 87.7911 370.579C89.2362 369.108 90.3394 367.337 91.0224 365.391C91.8576 362.58 91.9665 359.603 91.3388 356.739C90.7112 353.875 89.3674 351.217 87.4333 349.013C83.4725 344.643 78.0765 341.838 72.2243 341.106C61.4295 339.497 50.0021 344.227 42.3976 352.107C42.0229 352.51 41.5496 352.808 41.0244 352.972C40.4992 353.136 39.9403 353.16 39.4029 353.042C38.8655 352.924 38.3682 352.668 37.9601 352.299C37.5519 351.93 37.2472 351.461 37.0758 350.938C28.9625 325.512 22.9532 299.453 16.9439 273.449C11.6771 250.636 6.3691 227.327 8.69308 204.019C9.70948 193.754 12.1868 183.687 16.05 174.123C16.7233 172.575 16.9289 170.864 16.6413 169.2C15.6925 164.442 11.6634 164.635 8.39054 163.549H8.22552C7.63922 163.315 7.15474 162.881 6.85819 162.324C6.56163 161.767 6.4722 161.123 6.60579 160.506C6.73939 159.889 7.08735 159.339 7.58784 158.955C8.08834 158.57 8.70896 158.376 9.33939 158.406C22.9611 158.948 36.5911 157.56 49.8233 154.28C52.2166 153.895 54.4524 152.842 56.2727 151.241C58.4592 148.931 58.693 145.314 57.8816 142.234C56.9681 139.172 55.3148 136.383 53.0676 134.112C50.8203 131.84 48.0484 130.157 44.9966 129.211C38.8294 127.392 32.2254 127.736 26.281 130.188C22.1556 131.797 18.0302 134.423 16.105 138.439C15.4717 139.803 15.1517 141.291 15.1683 142.795C15.185 144.299 15.5379 145.78 16.2013 147.129C16.3969 147.478 16.6901 147.762 17.0448 147.946C17.3996 148.13 17.8004 148.206 18.1979 148.165C18.5954 148.124 18.9722 147.968 19.2821 147.715C19.5919 147.463 19.8212 147.125 19.9417 146.744C21.221 142.86 23.9164 139.6 27.4912 137.614C30.1706 136.186 33.1998 135.547 36.2275 135.771C39.2552 135.995 42.1575 137.073 44.5978 138.879C45.6298 139.607 46.4761 140.568 47.0685 141.683C47.6609 142.799 47.9828 144.038 48.0082 145.301C47.8844 149.632 43.7865 151.777 40.0874 153.139C32.3866 155.972 23.4345 157.622 16.2563 153.634C10.3845 150.375 6.96041 144.008 4.67769 137.696C0.676045 126.695 -0.69909 114.016 4.18264 103.318C9.68317 91.244 22.1419 83.7496 34.7381 79.5966C40.0324 77.864 45.6567 76.5713 51.1435 77.4789C56.9328 78.4415 62.5433 82.3332 63.8635 88.1225C64.1521 89.2331 64.187 90.3945 63.9656 91.5205C63.7442 92.6465 63.2722 93.7082 62.5846 94.6269C60.5769 97.1021 57.8404 96.7171 55.2964 96.4558C44.5328 95.3658 33.6667 96.9579 23.6683 101.09C15.9538 104.294 8.26678 109.781 7.07042 118.307C6.93671 119.06 6.96183 119.834 7.14416 120.577C7.32649 121.321 7.66201 122.018 8.12927 122.625C10.467 125.471 14.1524 124.096 17.0676 122.735C23.2007 119.874 29.5539 117.234 36.3195 116.423C43.0852 115.611 50.2909 116.945 55.4751 121.304C61.5395 126.392 63.9047 135.056 62.3508 142.839C60.7969 150.622 55.9152 157.429 49.7271 162.352C43.3641 167.089 36.2065 170.651 28.5913 172.872C26.7807 173.594 24.8271 173.886 22.8845 173.725C21.9162 173.625 21.0049 173.219 20.2829 172.566C19.5609 171.913 19.0656 171.048 18.8691 170.094C18.5803 167.44 21.3031 165.529 23.7095 164.374C32.3815 160.245 41.6728 157.569 51.2122 156.453C52.7799 156.274 54.8288 156.453 55.3376 157.938C55.402 158.429 55.3617 158.927 55.2195 159.401C55.0773 159.876 54.8364 160.314 54.5125 160.688C46.8255 172.583 39.1248 184.478 31.7678 196.689C26.8779 204.809 25.228 214.474 27.1471 223.756C29.0663 233.039 34.4135 241.257 42.1226 246.772C43.0172 247.516 44.1041 247.993 45.2579 248.147C45.8362 248.203 46.4147 248.043 46.8819 247.697C47.3491 247.352 47.6719 246.846 47.7881 246.277C47.7581 245.468 47.4469 244.694 46.9081 244.09C45.5329 242.124 43.8278 240.267 43.319 238.177C45.9821 240.229 48.8927 241.939 51.9823 243.265C53.8009 244.071 55.7744 244.468 57.7632 244.428C59.7521 244.387 61.7078 243.911 63.4922 243.031C64.1162 242.699 64.6341 242.198 64.9867 241.585C65.3393 240.972 65.5123 240.273 65.4861 239.566C65.2523 236.224 60.2469 235.977 59.2705 233.02C59.0934 232.256 59.1465 231.457 59.423 230.722C59.6995 229.988 60.1871 229.352 60.8244 228.895C62.1226 227.999 63.6011 227.398 65.1561 227.135C68.1401 226.433 71.3167 225.883 74.2045 226.887C77.0922 227.891 79.485 230.944 78.7012 233.887C78.2886 235.454 77.0647 236.926 77.4773 238.48C77.8348 239.855 79.2787 240.542 80.5851 240.996C84.1403 242.117 87.8606 242.624 91.5862 242.495C94.2195 241.839 96.6832 240.631 98.8135 238.949C100.944 237.268 102.692 235.153 103.942 232.744C105.192 230.335 105.915 227.688 106.063 224.978C106.211 222.269 105.781 219.558 104.801 217.028C104.758 216.875 104.769 216.713 104.832 216.567C104.895 216.422 105.007 216.303 105.147 216.23C105.288 216.158 105.449 216.136 105.604 216.168C105.759 216.201 105.898 216.286 105.998 216.409C108.144 219.193 109.544 222.48 110.063 225.958C110.582 229.435 110.204 232.988 108.964 236.278C107.724 239.568 105.663 242.487 102.978 244.756C100.293 247.026 97.072 248.572 93.6214 249.247C88.0521 250.347 82.304 249.123 76.7485 247.872C74.3695 247.349 71.7155 246.882 69.5978 248.092C68.7248 248.675 67.997 249.451 67.4703 250.359C66.9435 251.267 66.6316 252.284 66.5587 253.331C66.3933 255.348 66.675 257.376 67.3838 259.272C68.2914 262.696 65.8024 266.285 62.6121 267.825C61.2687 268.459 59.8354 268.881 58.3629 269.076C57.8691 269.159 57.362 269.1 56.9003 268.907C56.4385 268.713 56.0408 268.393 55.7532 267.983C55.4657 267.573 55.2998 267.091 55.275 266.59C55.2501 266.09 55.3672 265.594 55.6127 265.157C56.6862 263.213 57.3224 261.057 57.4768 258.841C57.6312 256.625 57.3 254.402 56.5065 252.327C56.2315 251.653 55.7502 250.952 55.0351 250.952C54.32 250.952 53.8387 251.915 53.66 252.699C52.2023 258.804 51.3773 265.652 46.7843 269.86C44.1303 272.253 40.5962 273.408 37.5846 275.361C33.2221 278.149 30.0739 282.482 28.7709 287.493C27.4678 292.504 28.1061 297.822 30.5577 302.382C32.0566 305.132 34.6006 307.8 38.1072 308.061C45.7804 306.783 52.5049 302.217 59.9993 300.154C69.8453 297.404 80.3376 299.261 90.2523 301.681C100.167 304.101 110.137 307.181 120.34 306.879C121.454 306.879 122.912 306.452 122.939 305.339C122.939 304.5 122.1 303.964 121.344 303.578C113.643 299.838 105.172 297.72 97.843 293.306C91.7649 289.635 86.7182 284.547 81.1214 280.187C75.5246 275.828 68.979 272.129 61.8695 271.937C58.0213 272.037 54.2085 272.699 50.5522 273.903C45.7117 275.278 40.6649 276.873 37.4746 280.999C36.5977 282.063 35.9637 283.306 35.6169 284.641C35.2701 285.976 35.2189 287.37 35.4669 288.727C36.6908 294.406 42.8927 295.905 47.8431 294.888C52.0511 294.049 55.8602 291.876 59.9856 290.762C69.529 288.012 79.7188 290.996 88.8634 294.764C98.008 298.532 107.07 303.235 116.93 304.239C118.646 304.246 120.338 304.64 121.88 305.394C123.338 306.287 124.246 308.35 123.256 309.767C122.636 310.49 121.811 311.008 120.89 311.252L78.0686 327.396C72.4536 329.543 66.6408 331.132 60.7144 332.14C54.5813 333.158 47.6094 333.584 41.8613 330.765C37.3096 328.468 33.7343 323.71 34.0643 318.636C34.3792 315.417 35.8906 312.433 38.2997 310.275C40.6993 308.144 43.5061 306.52 46.5505 305.504C56.0252 302.011 66.5175 302.08 76.4459 303.95C78.5671 304.236 80.6099 304.942 82.4553 306.026C83.3735 306.582 84.1331 307.365 84.6606 308.299C85.1881 309.234 85.4658 310.289 85.4668 311.362C85.2468 314.47 82.1528 316.45 79.4025 317.935C74.2045 320.974 68.7012 323.459 62.9834 325.347C56.5753 327.203 49.4933 327.52 43.4015 324.604C42.6766 324.292 42.0511 323.788 41.5929 323.145C41.1347 322.503 40.8613 321.747 40.8025 320.96C40.7199 318.306 43.3602 317.261 45.6292 317.069C51.8585 316.518 57.7716 319.516 63.5747 321.882C64.606 322.294 65.6374 322.707 66.6825 323.078C100.662 335.523 138.616 324.247 162.158 296.772C177.037 279.404 188.822 258.832 200.098 238.782C204.787 230.449 209.518 222.019 212.282 212.861C214.823 205.098 215.274 196.802 213.588 188.81C213.544 188.614 213.432 188.44 213.272 188.319C213.112 188.197 212.915 188.136 212.715 188.146C212.514 188.156 212.324 188.236 212.177 188.373C212.029 188.509 211.935 188.693 211.91 188.892C210.107 204.968 204.813 220.455 196.399 234.272C194.089 238.053 191.421 242.261 193.979 246.785C194.917 248.355 196.269 249.637 197.887 250.49C199.504 251.344 201.325 251.737 203.151 251.626C218.745 250.966 228.632 236.829 233.486 222.844C237.213 212.063 238.987 200.155 235.59 189.264C234.322 185.05 232.197 181.144 229.348 177.791C226.498 174.438 222.987 171.71 219.034 169.778C218.622 169.596 218.16 169.562 217.725 169.681C217.291 169.801 216.912 170.067 216.651 170.434C216.391 170.802 216.265 171.248 216.296 171.697C216.327 172.146 216.512 172.571 216.82 172.899C233.762 190.615 244.577 213.297 247.678 237.613C248.819 246.827 249.892 257.952 258.871 261.568C262.191 262.848 265.872 262.818 269.171 261.486C276.17 258.735 280.31 252.341 282.702 245.603C289.055 227.726 283.885 207.099 272.554 191.821C260.769 175.98 243.112 165.35 224.782 158.103C224.029 157.786 223.191 157.733 222.405 157.953C221.618 158.173 220.929 158.652 220.45 159.313C219.322 161.018 220.56 162.806 221.825 164.14C236.952 180.779 260.659 186.926 277.092 202.245C283.624 208.323 289.014 215.872 297.98 218.746C300.052 219.468 302.259 219.72 304.44 219.482C306.621 219.244 308.722 218.523 310.59 217.371C318.277 212.256 316.819 201.777 313.175 194.063C305.956 178.826 292.246 167.371 277.051 160.097C261.264 152.548 243.841 149.096 226.569 146.442C225.852 146.311 225.113 146.387 224.438 146.663C223.763 146.938 223.181 147.401 222.76 147.996C221.206 150.43 223.902 152.85 226.239 154.129C254.154 169.522 284.933 179.019 316.668 182.03C320.298 182.36 324.259 182.567 326.61 178.373C327.256 177.203 327.619 175.898 327.669 174.563C327.834 170.218 325.497 166.519 322.98 163.191C301.954 135.317 262.474 122.845 229.333 133.956C228.348 134.266 227.495 134.895 226.907 135.744C226.319 136.593 226.031 137.614 226.088 138.645C226.377 141.67 229.732 142.372 232.441 142.564C253.728 144.063 275.428 143.595 296.522 138.686C304.141 136.912 311.8 129.28 313.519 121.634V121.442C314.481 118.008 314.375 114.363 313.217 110.991C312.363 109.149 311.138 107.504 309.619 106.157C308.1 104.811 306.319 103.793 304.388 103.166C300.511 101.966 296.445 101.5 292.397 101.791C279.567 102.163 266.379 105.71 256.822 114.278C256.534 114.553 256.217 114.924 256.355 115.295C256.492 115.666 257.056 115.735 257.482 115.708C270.309 114.591 282.447 109.418 292.136 100.939C293.755 99.6355 295.149 98.0744 296.261 96.3183C296.944 95.3119 297.363 94.1501 297.479 92.9396C297.596 91.7292 297.407 90.5087 296.929 89.3904C296.452 88.2721 295.701 87.2917 294.745 86.5391C293.79 85.7866 292.661 85.286 291.462 85.0834C288.697 84.4911 285.838 84.4911 283.074 85.0834C258.422 92.846 237.066 108.613 222.389 129.885C222.201 130.094 222.059 130.341 221.974 130.609C221.889 130.877 221.861 131.16 221.894 131.439C222.006 131.706 222.199 131.93 222.446 132.081C222.693 132.232 222.981 132.301 223.269 132.278C223.857 132.193 224.418 131.971 224.905 131.632C248.679 117.616 267.111 96.0867 277.298 70.4382C279.261 63.7318 279.741 56.6783 278.703 49.7678C277.665 42.8574 275.135 36.2558 271.289 30.4218C270.441 29.1187 269.309 28.0247 267.977 27.222C266.646 26.4194 265.15 25.929 263.602 25.7876C256.3 25.2376 253.467 32.8008 251.679 38.9889C243.964 65.6155 231.508 90.6313 214.908 112.834C213.866 113.996 213.166 115.424 212.887 116.959C212.83 117.334 212.849 117.717 212.942 118.084C213.035 118.452 213.201 118.798 213.428 119.101C213.656 119.404 213.942 119.659 214.269 119.851C214.596 120.043 214.959 120.168 215.334 120.218C216.356 120.066 217.284 119.536 217.934 118.733C231.691 105.167 241.554 88.1572 246.493 69.4786C251.433 50.8 251.267 31.1379 246.014 12.5451C245.368 9.76485 244.227 7.12367 242.645 4.7481C241.903 3.49914 240.856 2.45832 239.604 1.72259C238.351 0.98686 236.932 0.580149 235.48 0.540342C234.028 0.500535 232.589 0.82893 231.298 1.49493C230.007 2.16093 228.905 3.14288 228.096 4.34931C226.359 6.67033 225.05 9.28282 224.232 12.0638C213.011 44.4207 215.981 80.1605 206.644 113.122C206.327 114.675 205.633 116.125 204.622 117.344C204.1 117.936 203.392 118.333 202.615 118.468C201.837 118.603 201.036 118.468 200.346 118.087C198.97 117.138 198.97 115.226 198.97 113.59C199.374 101.015 200.958 88.5062 203.701 76.2276C206.327 64.5114 210.013 52.8503 209.903 40.8591C209.793 28.868 205.021 16.0104 194.597 10.0699C190.953 7.99341 186.622 6.82455 182.483 8.46095C181.181 8.98923 180.035 9.84123 179.155 10.9362C175.373 15.6667 178.261 21.731 180.777 26.764C192.209 49.8517 196.109 75.9437 191.93 101.365C191.586 103.386 191.93 106.371 194.006 106.274C195.643 106.274 196.248 104.115 196.344 102.479C196.987 90.1087 194.904 77.7484 190.245 66.2714C185.585 54.7945 178.461 44.481 169.378 36.0599C165.252 32.3195 159.752 28.7442 154.389 31.8107C153.154 32.5544 152.091 33.552 151.271 34.7373C150.45 35.9227 149.891 37.2687 149.631 38.6864C148.338 44.6682 150.868 50.1413 153.357 55.7931C159.8 62.6876 165.733 70.041 171.11 77.7952C176.611 86.1973 180.887 95.672 181.96 105.628C182.104 107.166 182.418 108.683 182.895 110.152V110.248C183.105 110.853 183.527 111.361 184.082 111.679C184.637 111.997 185.288 112.104 185.916 111.98C186.543 111.857 187.105 111.51 187.498 111.005C187.89 110.5 188.087 109.87 188.052 109.231C187.901 107.516 187.56 105.823 187.034 104.184C184.091 94.6563 179.042 85.9131 172.26 78.6026C165.478 71.2921 157.137 65.6019 147.857 61.9537C145.244 60.9498 142.356 60.0972 139.606 60.8948C136.141 61.9124 133.913 65.474 133.473 69.0631C132.95 73.3123 134.504 77.5889 136.003 81.5356C138.989 89.3161 142.719 96.7902 147.142 103.854C153.192 113.645 158.665 124.852 168.112 131.879C168.869 132.429 169.859 132.966 170.656 132.498C171.963 131.728 170.945 129.748 169.886 128.675C162.543 121.181 156.754 112.325 150.552 103.854C144.35 95.3832 137.516 87.1049 128.729 81.3568C119.941 75.6088 108.83 72.6385 98.5993 76.3513C94.3502 77.9465 92.1912 83.0207 92.6588 87.5312C93.1263 92.0416 95.6428 96.0845 98.3793 99.7149C111.723 117.249 131.17 129.127 152.862 132.993C154.389 133.268 156.479 133.144 156.836 131.618C157.125 130.325 155.805 129.28 154.65 128.648C140.863 121.105 125.071 118.039 109.463 119.874C104.413 120.303 99.5014 121.748 95.024 124.124C92.7918 125.322 90.8195 126.952 89.2215 128.918C87.6235 130.884 86.4314 133.148 85.7143 135.578C84.4767 140.474 86.0581 146.194 90.1835 149.123C93.6901 151.599 98.2968 151.777 102.56 151.612C117.231 151.059 131.652 147.64 145.01 141.546C145.986 141.106 147.073 140.488 147.238 139.415C147.513 137.641 145.106 136.788 143.305 136.733C132.847 136.514 122.526 139.133 113.438 144.313C104.351 149.492 96.8368 157.038 91.6962 166.148C89.2484 170.603 87.3782 175.691 88.2583 180.697C89.1384 185.702 93.5664 190.322 98.1318 190.047C112.098 188.493 125.4 183.254 136.674 174.867C147.949 166.48 156.792 155.246 162.296 142.317C162.483 141.99 162.603 141.631 162.65 141.258C162.698 140.885 162.67 140.506 162.571 140.144C162.351 139.752 162.001 139.45 161.581 139.289C161.162 139.129 160.699 139.12 160.274 139.264C159.426 139.57 158.673 140.091 158.088 140.776C151.793 147.162 147.394 155.169 145.381 163.906C144.461 167.375 144.311 171.003 144.941 174.536C145.27 176.299 145.977 177.97 147.014 179.432C148.052 180.895 149.395 182.114 150.951 183.007C154.774 184.987 159.394 184.272 163.574 183.254C172.325 181.137 180.785 177.96 188.767 173.793C190.142 173.065 191.792 171.827 191.407 170.287C190.953 168.458 188.354 168.472 186.539 168.912C173.721 172.623 162.517 180.524 154.719 191.354C151.006 196.538 147.994 203.262 152.697 209.231C154.302 211.167 156.432 212.599 158.83 213.356C165.252 215.487 172.073 213.823 177.285 211.431C186.833 208.193 194.796 201.449 199.562 192.564C202.121 188.337 204.127 183.798 205.53 179.06C206.726 174.261 206.63 168.953 204.155 164.676C201.679 160.4 197.073 157.553 192.315 155.972C187.557 154.39 181.671 153.483 178.742 149.247C177.91 147.932 177.358 146.46 177.122 144.922C176.885 143.383 176.969 141.813 177.367 140.309C178.185 137.284 179.643 134.47 181.644 132.058C185.453 127.135 190.83 122.872 197.059 122.528C200.969 122.167 204.862 123.374 207.881 125.883C210.901 128.393 212.801 131.999 213.162 135.908C213.523 139.818 212.316 143.711 209.807 146.731C207.298 149.751 203.691 151.65 199.782 152.011C197.249 152.409 194.658 151.872 192.494 150.499C191.431 149.799 190.587 148.813 190.059 147.655C189.532 146.497 189.341 145.214 189.509 143.953C190.128 140.625 193.635 138.535 197.059 138.315" stroke="#505050" stroke-linecap="round" stroke-linejoin="round"/>
</svg>
