<svg width="120" height="120" viewBox="0 0 120 120" fill="none" xmlns="http://www.w3.org/2000/svg">
<rect x="0.5" y="0.5" width="119" height="119" rx="4.5" stroke="#222125"/>
<path d="M56.0481 40.1704C57.6952 38.2836 58.925 36.787 59.5792 35.9799C60.2331 36.7869 61.4616 38.2831 63.1007 40.1695L63.1016 40.1706C64.2745 41.5128 66.1889 43.4097 68.3993 45.6C68.5861 45.785 68.7749 45.9721 68.9656 46.1612C71.422 48.5966 74.2 51.3681 76.7665 54.1727L76.7671 54.1733C81.7992 59.6543 82.2043 65.1284 81.2574 69.6651C80.3413 74.0538 75.7218 78.296 68.2936 77.361L68.2899 77.3606C66.3153 77.1271 64.498 76.168 63.1911 74.6696L62.1072 73.4269L62.3184 75.0623C62.6369 77.5288 63.4763 81.4438 65.7756 84.5H53.0349C55.1885 81.7738 56.5281 78.4849 56.8857 75.0141L57.0485 73.4342L56.01 74.6359C54.6991 76.1529 52.8683 77.1248 50.8772 77.3606L50.8736 77.361C43.4442 78.2962 38.826 74.0792 37.91 69.6656C36.9626 65.101 37.3508 59.6624 42.3827 54.1731C44.9538 51.3683 47.734 48.5967 50.1905 46.1612C50.3575 45.9957 50.523 45.8317 50.6869 45.6692C52.9264 43.4499 54.8667 41.5271 56.0481 40.1704ZM56.0481 40.1704L55.6718 39.8419L56.0485 40.1699C56.0484 40.1701 56.0482 40.1702 56.0481 40.1704Z" stroke="#222125"/>
</svg>
