<svg width="43" height="80" viewBox="0 0 43 80" fill="none" xmlns="http://www.w3.org/2000/svg">
<path d="M9.41724 0.626093C11.3105 1.83701 12.981 3.36493 14.3556 5.14286L24.3677 18.2866C25.4367 19.7019 27.2434 21.087 25.7679 22.9841C25.0603 23.8874 24.0215 24.4897 23.2687 25.3931C22.5159 26.2964 21.8986 27.0191 21.2512 27.8472C19.6402 29.7642 18.2559 31.8608 17.1259 34.0953C16.8217 34.9012 16.59 35.7326 16.4333 36.5796C15.9599 38.4063 15.792 40.2988 15.9365 42.1803C16.0076 43.8737 16.3798 45.5408 17.0355 47.1036C17.8292 48.5561 18.7837 49.9146 19.8811 51.1537C20.7845 52.3431 21.7029 53.5325 22.6062 54.737C23.2687 55.6102 23.9312 56.4985 24.6087 57.3718C25.0905 58.0192 26.2196 59.0129 26.3401 59.841C26.3698 60.0355 26.3698 60.2335 26.3401 60.4281C26.204 61.0763 25.8849 61.6719 25.4206 62.1443C24.9562 62.6166 24.3661 62.9459 23.7203 63.093C23.6365 63.1153 23.5483 63.1153 23.4644 63.093C23.3786 63.0683 23.3007 63.0216 23.2385 62.9575C20.5586 60.5787 16.5688 58.6515 12.8801 59.2688C11.51 59.4947 10.7421 60.7744 10.155 61.8885C9.58176 63.1671 9.28547 64.5525 9.28547 65.9536C9.28547 67.3548 9.58176 68.7402 10.155 70.0188C11.4632 72.8049 12.9728 75.4919 14.6717 78.0586C14.7285 78.1389 14.7647 78.232 14.7771 78.3295C14.8976 79.248 12.9704 79.8352 12.3381 79.9857C11.7057 80.1363 10.8325 79.0523 10.3808 78.6759C9.67321 78.0737 8.99571 77.4563 8.31819 76.824C7.00236 75.5884 5.76055 74.2763 4.59934 72.8944C2.50657 70.3801 0.293398 67.4742 0.0826154 64.1017C-0.0556397 62.7176 -0.0202694 61.3217 0.187972 59.9464C0.504481 57.7197 1.56588 55.6659 3.19915 54.1197C4.29236 53.1585 5.58976 52.4583 6.99327 52.0721C7.68496 51.8665 8.39657 51.7352 9.11611 51.6806C10.0904 51.6292 11.0667 51.736 12.0069 51.9968C12.8049 52.1925 14.1899 52.328 14.3857 51.2591C14.3485 50.1536 13.9401 49.0929 13.2264 48.2479C11.4728 45.3363 9.56285 42.5218 7.50511 39.8166C6.71477 38.7697 5.87051 37.7646 4.97574 36.8055C4.25011 35.8714 3.34385 35.0931 2.3109 34.5169C2.07173 34.4248 1.84013 34.314 1.6183 34.1857C0.835394 33.6888 1.12142 32.2887 1.30209 31.5359C1.54506 30.6518 2.07461 29.8733 2.80768 29.3226C5.66856 26.9204 8.24946 24.2032 10.5013 21.2225C12.1725 18.9792 14.4911 15.7121 13.106 12.8064C11.6562 9.68122 9.80912 6.75624 7.61052 4.104C7.17184 3.57676 6.70441 3.07413 6.21033 2.59841C5.66832 2.07146 6.21039 1.09286 6.64701 0.565903C7.01815 0.223818 7.49828 0.0240858 8.00254 0.00204164C8.5068 -0.0200025 9.0026 0.137037 9.40217 0.44543L9.41724 0.626093Z" fill="#222125"/>
<path d="M33.2344 20.2021C33.2314 19.2688 33.5056 18.3557 34.0223 17.5784C34.539 16.8011 35.2748 16.1947 36.1365 15.8362C36.9982 15.4776 37.947 15.3831 38.8625 15.5644C39.7781 15.7458 40.6191 16.1949 41.2791 16.8549C41.939 17.5149 42.3882 18.3559 42.5695 19.2714C42.7509 20.187 42.6563 21.1358 42.2978 21.9975C41.9393 22.8592 41.3329 23.595 40.5556 24.1117C39.7783 24.6283 38.8652 24.9026 37.9318 24.8996C36.6872 24.8956 35.4947 24.3994 34.6146 23.5193C33.7346 22.6392 33.2384 21.4468 33.2344 20.2021Z" fill="#222125"/>
</svg>
