<svg width="289" height="288" viewBox="0 0 289 288" fill="none" xmlns="http://www.w3.org/2000/svg">
<path d="M134.816 245.405L124.409 243.188L128.731 245.745L125.923 258.929L117.316 257.095L116.198 252.358L114.223 261.63L117.166 257.799L125.772 259.633L123.13 272.035L109.359 269.101L107.057 261.862L106.839 268.646L106.706 269.272L128.731 273.964L125.217 271.457L130.609 246.145L134.816 245.405Z" fill="#EEEEEE"/>
<path d="M105.853 238.545L97.3054 233.671L99.9528 237.023L93.5725 248.211L89.2986 245.774L84.9005 226.597L82.503 225.23L87.2034 244.119L86.9458 244.571C82.3896 242.709 78.099 243.854 76.2761 247.051C74.2946 250.526 76.3777 255.351 81.3814 258.204L91.3886 263.911L88.8007 260.455L101.621 237.974L105.853 238.545ZM86.6374 260.373L82.0855 257.777C77.4641 255.142 76.1609 251.452 78.0829 248.081C80.0446 244.641 83.9581 243.511 88.51 246.107L93.2357 248.802L86.6374 260.373Z" fill="#EEEEEE"/>
<path d="M68.6008 210.391C63.8239 204.898 54.249 204.371 47.88 209.909C41.7224 215.264 40.986 224.597 45.8417 230.181C50.6974 235.765 60.0426 236.332 66.2003 230.978C72.5692 225.44 73.3778 215.885 68.6008 210.391ZM67.9972 210.916C72.5378 216.138 71.1558 223.754 64.7567 229.318C58.6293 234.646 50.9861 234.878 46.4454 229.656C41.9047 224.434 43.1961 216.898 49.3236 211.569C55.7227 206.005 63.4565 205.694 67.9972 210.916Z" fill="#EEEEEE"/>
<path d="M20.0469 179.197L17.1172 176.069L20.2449 184.38L20.385 180.096L42.4727 171.783L42.6417 172.232L26.037 201.133L27.4725 203.585L28.9056 200.011L52.2661 191.219L55.1958 194.348L52.068 186.037L51.9279 190.321L30.0649 198.549L29.9381 198.212L46.6644 169.18L20.0469 179.197Z" fill="#EEEEEE"/>
<path d="M43.3671 151.942L43.1567 140.504L41.6445 145.292L14.7691 145.787L14.6176 137.548L21.5443 133.5L14.489 134.91L13.8491 134.922L14.2845 158.598L14.9244 158.586L22.0268 159.736L14.9559 155.945L14.8044 147.706L41.6798 147.212L43.3671 151.942Z" fill="#EEEEEE"/>
<path d="M57.1015 92.1546L56.5217 91.8838L50.1777 87.5074L55.3996 94.0968L49.288 107.18L36.2776 101.102L39.8497 93.4552L44.6657 93.5416L36.0767 89.5293L39.1974 93.1504L35.6252 100.797L24.1369 95.4305L29.6221 83.6885L37.0507 83.097L30.5993 81.4078L30.0195 81.1369L20.9959 100.453L24.2303 97.5933L47.5693 108.496L47.4516 112.812L57.1015 92.1546Z" fill="#EEEEEE"/>
<path d="M59.4747 46.9965L61.0504 43.0105L54.8745 49.3912L58.807 47.6863L75.7647 64.0997L75.4309 64.4446L42.2057 61.7899L40.6033 64.1357L44.4466 63.9033L62.3815 81.2625L60.8058 85.2485L66.9817 78.8678L63.0492 80.5727L46.264 64.3263L46.5143 64.0676L79.9101 66.776L59.4747 46.9965Z" fill="#EEEEEE"/>
<path d="M97.2491 54.8424C105.296 50.9016 108.537 41.8763 104.948 34.548C101.482 27.4711 92.4529 24.6776 84.4061 28.6184L74.3835 33.5269L78.6964 33.3299L90.0264 56.4645L87.2265 59.7509L97.2491 54.8424ZM79.9809 31.5874L84.615 29.3178C91.7997 25.7992 99.4173 28.3486 102.936 35.5332C106.578 42.9693 104.009 50.73 96.7887 54.2662L92.1906 56.5181L79.9809 31.5874Z" fill="#EEEEEE"/>
<path d="M140.746 43.6983C144.065 43.777 147.839 41.5459 151.58 37.3135L156.912 43.6017L159.512 43.6634L152.697 35.7795C154.806 32.8687 156.119 29.819 157.11 26.8417L160.86 25.6103L151.623 25.3911L155.193 26.6762C154.723 29.6258 153.77 32.7241 152.23 35.2083L144.015 25.6508C148.569 22.5579 149.936 20.5898 149.99 18.3104C150.052 15.7111 147.619 13.6929 144.38 13.616C140.941 13.5344 138.33 15.6731 138.259 18.6323C138.202 21.0316 139.554 23.1042 142.082 26.1651C136.474 29.7931 133.148 33.3952 133.066 36.8342C132.972 40.7931 136.107 43.5883 140.746 43.6983ZM143.664 25.2423C141.213 22.3034 140.097 20.4364 140.148 18.277C140.205 15.8777 142.047 14.1209 144.367 14.1759C146.526 14.2271 148.164 16.0265 148.108 18.3858C148.058 20.5052 147.292 22.4076 143.664 25.2423ZM141.538 42.3567C137.619 42.2637 134.956 39.8399 135.036 36.4408C135.118 33.0018 138.075 29.791 142.47 26.6544L151.113 36.7822C148.065 40.431 144.737 42.4326 141.538 42.3567Z" fill="#EEEEEE"/>
<path d="M180.495 49.3473L189.913 54.2971L186.444 50.6664L191.952 40.1856L198.786 43.777C203.495 46.2519 209.029 45.0935 211.076 41.1986C213.067 37.41 210.827 32.3012 206.118 29.8262L194.079 23.4994L196.784 26.8642L184.744 49.7732L180.495 49.3473ZM198.949 26.8722L205.499 30.3147C209.607 32.4733 211.135 36.5299 209.2 40.2124C207.209 44.001 202.945 45.1494 198.838 42.9908L192.287 39.5482L198.949 26.8722Z" fill="#EEEEEE"/>
<path d="M216.38 74.4703C221.418 79.7253 231.007 79.7857 237.1 73.9447C242.99 68.2975 243.272 58.9392 238.15 53.5977C233.029 48.2561 223.667 48.1438 217.777 53.7911C211.685 59.6321 211.342 69.2153 216.38 74.4703ZM216.957 73.9167C212.168 68.9216 213.179 61.2478 219.3 55.3791C225.161 49.7595 232.784 49.1562 237.573 54.1513C242.362 59.1464 241.438 66.7371 235.577 72.3567C229.456 78.2254 221.746 78.9118 216.957 73.9167Z" fill="#EEEEEE"/>
<path d="M230.38 90.1435L234.46 99.0978L234.274 94.8309L245.994 89.4905L248.034 93.9676L240.38 112.093L241.525 114.604L248.765 96.5358L249.238 96.3202C251.844 100.496 255.993 102.078 259.342 100.552C262.982 98.8932 264.116 93.7611 261.728 88.5195L256.951 78.0364L257.028 82.3531L233.478 93.0837L230.38 90.1435ZM258.734 83.6857L260.907 88.454C263.113 93.2952 262.01 97.0502 258.48 98.659C254.876 100.301 251.041 98.9272 248.869 94.1589L246.613 89.2085L258.734 83.6857Z" fill="#EEEEEE"/>
<path d="M243.873 127.83L245.072 139.207L246.164 134.305L272.896 131.489L273.759 139.684L267.209 144.316L274.116 142.301L274.752 142.234L272.271 118.684L271.635 118.751L264.46 118.22L271.832 121.385L272.695 129.58L245.963 132.396L243.873 127.83Z" fill="#EEEEEE"/>
<path d="M245.378 152.896L243.229 163.317L245.758 158.978L258.96 161.701L257.182 170.32L252.453 171.468L261.737 173.383L257.887 170.465L259.665 161.846L272.084 164.408L269.24 178.198L262.016 180.547L268.801 180.721L269.428 180.85L273.977 158.794L271.492 162.325L246.146 157.098L245.378 152.896Z" fill="#EEEEEE"/>
<path d="M231.17 194.333C227.515 200.629 230.111 209.86 237.41 214.098C244.467 218.195 253.538 215.875 257.253 209.475C260.968 203.076 258.485 194.048 251.428 189.952C244.129 185.714 234.825 188.037 231.17 194.333ZM231.862 194.735C235.336 188.75 242.99 187.597 250.323 191.854C257.346 195.931 260.036 203.089 256.561 209.074C253.087 215.058 245.537 216.272 238.515 212.195C231.181 207.938 228.387 200.719 231.862 194.735Z" fill="#EEEEEE"/>
<path d="M203.011 226.837L203.434 227.317L208.007 234.323L205.491 225.718L215.935 216.516L233.652 236.625L231.138 240.972L239.121 233.938L235.092 235.356L217.984 215.937L219.818 212.029L203.011 226.837Z" fill="#EEEEEE"/>
<path d="M196.398 230.684L187.736 235.355L191.981 234.884L204.322 257.769L201.595 261.056L210.257 256.386L206.012 256.857L193.671 233.972L196.398 230.684Z" fill="#EEEEEE"/>
<path d="M168.203 241.724C161.129 243.442 156.262 251.705 158.255 259.907C160.182 267.836 168.133 272.778 175.324 271.031C182.515 269.283 187.312 261.243 185.385 253.314C183.393 245.113 175.277 240.005 168.203 241.724ZM168.392 242.501C175.116 240.867 181.245 245.593 183.248 253.834C185.165 261.724 181.86 268.619 175.135 270.253C168.411 271.887 162.31 267.277 160.393 259.387C158.39 251.147 161.667 244.135 168.392 242.501Z" fill="#EEEEEE"/>
</svg>
